<?xml version="1.0" standalone="no"?>
<svg xmlns:xlink="http://www.w3.org/1999/xlink" id="wave" style="transform:rotate(0deg); transition: 0.3s" viewBox="0 0 1440 390" version="1.1" xmlns="http://www.w3.org/2000/svg"><defs><linearGradient id="sw-gradient-0" x1="0" x2="0" y1="1" y2="0"><stop stop-color="rgba(155.917, 62, 243, 1)" offset="0%"/><stop stop-color="rgba(154.139, 11, 255, 1)" offset="100%"/></linearGradient></defs><path style="transform:translate(0, 0px); opacity:1" fill="url(#sw-gradient-0)" d="M0,273L120,227.5C240,182,480,91,720,104C960,117,1200,234,1440,292.5C1680,351,1920,351,2160,338C2400,325,2640,299,2880,247C3120,195,3360,117,3600,84.5C3840,52,4080,65,4320,117C4560,169,4800,260,5040,305.5C5280,351,5520,351,5760,331.5C6000,312,6240,273,6480,234C6720,195,6960,156,7200,130C7440,104,7680,91,7920,117C8160,143,8400,208,8640,221C8880,234,9120,195,9360,188.5C9600,182,9840,208,10080,182C10320,156,10560,78,10800,84.5C11040,91,11280,182,11520,195C11760,208,12000,143,12240,143C12480,143,12720,208,12960,221C13200,234,13440,195,13680,201.5C13920,208,14160,260,14400,266.5C14640,273,14880,234,15120,208C15360,182,15600,169,15840,169C16080,169,16320,182,16560,208C16800,234,17040,273,17160,292.5L17280,312L17280,390L17160,390C17040,390,16800,390,16560,390C16320,390,16080,390,15840,390C15600,390,15360,390,15120,390C14880,390,14640,390,14400,390C14160,390,13920,390,13680,390C13440,390,13200,390,12960,390C12720,390,12480,390,12240,390C12000,390,11760,390,11520,390C11280,390,11040,390,10800,390C10560,390,10320,390,10080,390C9840,390,9600,390,9360,390C9120,390,8880,390,8640,390C8400,390,8160,390,7920,390C7680,390,7440,390,7200,390C6960,390,6720,390,6480,390C6240,390,6000,390,5760,390C5520,390,5280,390,5040,390C4800,390,4560,390,4320,390C4080,390,3840,390,3600,390C3360,390,3120,390,2880,390C2640,390,2400,390,2160,390C1920,390,1680,390,1440,390C1200,390,960,390,720,390C480,390,240,390,120,390L0,390Z"/></svg>